<?xml version="1.0" encoding="UTF-8"?>
<svg width="1100" height="550" xmlns="http://www.w3.org/2000/svg">
    <!-- Background -->
    <rect width="100%" height="100%" fill="lightgray" fill-opacity="0.3"/>
    
    <!-- Title -->
    <text x="550" y="50" text-anchor="middle" font-size="24" font-family="sans-serif">
        Causes of Death by Year (1664–1666)
    </text>
    
    <!-- Axes -->
    <line x1="100" y1="430" x2="1050" y2="430" stroke="black"/> <!-- X-axis -->
    <line x1="100" y1="80" x2="100" y2="430" stroke="black"/>  <!-- Y-axis -->
    
    <!-- Y-axis Labels, Ticks, and Grid -->
    <g font-family="sans-serif" font-size="12" fill="black">
        <text x="75" y="430">0</text>
        <text x="65" y="380">50</text>
        <text x="65" y="330">100</text>
        <text x="65" y="280">150</text>
        <text x="65" y="230">200</text>
        <text x="65" y="180">250</text>
        <text x="65" y="130">300</text>
        <text x="65" y="80">350</text>
        <line x1="100" y1="380" x2="1050" y2="380" stroke="#888" stroke-dasharray="3,3"/>
        <line x1="100" y1="330" x2="1050" y2="330" stroke="#888" stroke-dasharray="3,3"/>
        <line x1="100" y1="280" x2="1050" y2="280" stroke="#888" stroke-dasharray="3,3"/>
        <line x1="100" y1="230" x2="1050" y2="230" stroke="#888" stroke-dasharray="3,3"/>
        <line x1="100" y1="180" x2="1050" y2="180" stroke="#888" stroke-dasharray="3,3"/>
        <line x1="100" y1="130" x2="1050" y2="130" stroke="#888" stroke-dasharray="3,3"/>
        <line x1="100" y1="80" x2="1050" y2="80" stroke="#888" stroke-dasharray="3,3"/>
    </g>
    
    <!-- Bars (Year 1664) -->
    <g fill="red">
        <rect x="150" y="222" width="30" height="208"/> <!-- x -->
        <rect x="190" y="428" width="30" height="2"/>   <!-- stillborn -->
        <rect x="230" y="429" width="30" height="1"/>   <!-- murder -->
    </g>
    
    <!-- Bars (Year 1665) -->
    <g fill="red">
        <rect x="350" y="149" width="30" height="281"/> <!-- x -->
        <rect x="390" y="55" width="30" height="375"/>  <!-- plag -->
        <rect x="430" y="423" width="30" height="7"/>   <!-- stillborn -->
        <rect x="470" y="429" width="30" height="1"/>   <!-- sudden death -->
        <rect x="510" y="429" width="30" height="1"/>   <!-- hanging -->
        <rect x="550" y="429" width="30" height="1"/>   <!-- Mid borne -->
        <rect x="590" y="429" width="30" height="1"/>   <!-- surfeit -->
        <rect x="630" y="428" width="30" height="2"/>   <!-- dropsie -->
        <rect x="670" y="429" width="30" height="1"/>   <!-- consumption -->
    </g>
    
    <!-- Bars (Year 1666) -->
    <g fill="red">
        <rect x="790" y="413" width="30" height="17"/>  <!-- plag -->
        <rect x="830" y="337" width="30" height="93"/>  <!-- x -->
        <rect x="870" y="429" width="30" height="1"/>   <!-- stillborn -->
        <rect x="910" y="429" width="30" height="1"/>   <!-- consumption -->
        <rect x="950" y="429" width="30" height="1"/>   <!-- wormes -->
        <rect x="990" y="429" width="30" height="1"/>   <!-- small pox -->
        <rect x="1030" y="429" width="30" height="1"/>  <!-- dropsy -->
    </g>
    
    <!-- Cause Labels -->
    <g font-family="sans-serif" font-size="10" fill="black">
        <!-- 1664 -->
        <text x="165" y="450" text-anchor="middle">x</text>
        <text x="205" y="450" text-anchor="middle">stillborn</text>
        <text x="245" y="450" text-anchor="middle">murder</text>
        
        <!-- 1665 -->
        <text x="365" y="450" text-anchor="middle">x</text>
        <text x="405" y="450" text-anchor="middle">plag</text>
        <text x="445" y="450" text-anchor="middle">stillborn</text>
        <text x="485" y="450" text-anchor="middle">sudden death</text>
        <text x="525" y="450" text-anchor="middle">hanging</text>
        <text x="565" y="450" text-anchor="middle">Mid borne</text>
        <text x="605" y="450" text-anchor="middle">surfeit</text>
        <text x="645" y="450" text-anchor="middle">dropsie</text>
        <text x="685" y="450" text-anchor="middle">consumption</text>
        
        <!-- 1666 -->
        <text x="805" y="450" text-anchor="middle">plag</text>
        <text x="845" y="450" text-anchor="middle">x</text>
        <text x="885" y="450" text-anchor="middle">stillborn</text>
        <text x="925" y="450" text-anchor="middle">consumption</text>
        <text x="965" y="450" text-anchor="middle">wormes</text>
        <text x="1005" y="450" text-anchor="middle">small pox</text>
        <text x="1045" y="450" text-anchor="middle">dropsy</text>
    </g>
    
    <!-- Year Labels -->
    <g font-family="sans-serif" font-size="14" fill="black">
        <text x="200" y="490" text-anchor="middle">1664</text>
        <text x="500" y="490" text-anchor="middle">1665</text>
        <text x="880" y="490" text-anchor="middle">1666</text>
    </g>
</svg>
