<?xml version="1.0" encoding="UTF-8"?>
<svg width="1000" height="500" xmlns="http://www.w3.org/2000/svg">
    <!-- Background -->
    <rect width="100%" height="100%" fill="lightgray" fill-opacity="0.3"/>
    
    <!-- Title -->
    <text x="500" y="20" text-anchor="middle" font-size="24" font-family="sans-serif">
        Causes of Death by Year (1664–1666)
    </text>
    
    <!-- Axes -->
    <line x1="100" y1="400" x2="950" y2="400" stroke="black"/> <!-- X-axis -->
    <line x1="100" y1="100" x2="100" y2="400" stroke="black"/> <!-- Y-axis -->
    
    <!-- Y-axis Labels, Ticks, and Grid -->
    <g font-family="sans-serif" font-size="12" fill="black">
        <text x="75" y="400">0</text>
        <text x="65" y="350">50</text>
        <text x="65" y="300">100</text>
        <text x="65" y="250">150</text>
        <text x="65" y="200">200</text>
        <text x="65" y="150">250</text>
        <text x="65" y="100">300</text>
        <line x1="100" y1="350" x2="950" y2="350" stroke="#888" stroke-dasharray="3,3"/>
        <line x1="100" y1="300" x2="950" y2="300" stroke="#888" stroke-dasharray="3,3"/>
        <line x1="100" y1="250" x2="950" y2="250" stroke="#888" stroke-dasharray="3,3"/>
        <line x1="100" y1="200" x2="950" y2="200" stroke="#888" stroke-dasharray="3,3"/>
        <line x1="100" y1="150" x2="950" y2="150" stroke="#888" stroke-dasharray="3,3"/>
        <line x1="100" y1="100" x2="950" y2="100" stroke="#888" stroke-dasharray="3,3"/>
    </g>
    
    <!-- Bars (Year 1664) -->
    <g fill="red">
        <rect x="150" y="192" width="30" height="208"/> <!-- x -->
        <rect x="190" y="398" width="30" height="2"/>   <!-- stillborn -->
        <rect x="230" y="399" width="30" height="1"/>   <!-- murder -->
    </g>
    
    <!-- Bars (Year 1665) -->
    <g fill="red">
        <rect x="330" y="119" width="30" height="281"/> <!-- x -->
        <rect x="370" y="25" width="30" height="375"/>  <!-- plag -->
        <rect x="410" y="393" width="30" height="7"/>   <!-- stillborn -->
        <rect x="450" y="399" width="30" height="1"/>   <!-- sudden death -->
        <rect x="490" y="399" width="30" height="1"/>   <!-- hanging -->
        <rect x="540" y="399" width="30" height="1"/>   <!-- Mid borne -->
        <rect x="570" y="399" width="30" height="1"/>   <!-- surfeit -->
        <rect x="620" y="398" width="30" height="2"/>   <!-- dropsie -->
        <rect x="650" y="399" width="30" height="1"/>   <!-- consumption -->
    </g>
    
    <!-- Bars (Year 1666) -->
    <g fill="red">
        <rect x="790" y="383" width="30" height="17"/>  <!-- plag -->
        <rect x="830" y="307" width="30" height="93"/>  <!-- x -->
        <rect x="870" y="399" width="30" height="1"/>   <!-- stillborn -->
        <rect x="910" y="399" width="30" height="1"/>   <!-- consumption -->
        <rect x="950" y="399" width="30" height="1"/>   <!-- wormes -->
        <rect x="990" y="399" width="30" height="1"/>   <!-- small pox -->
        <rect x="1030" y="399" width="30" height="1"/>  <!-- dropsy -->
    </g>
    
    <!-- Cause Labels -->
    <g font-family="sans-serif" font-size="10" fill="black">
        <!-- 1664 -->
        <text x="165" y="420" transform="rotate(-45,165,420)" text-anchor="end">x</text>
        <text x="205" y="420" transform="rotate(-45,205,420)" text-anchor="end">stillborn</text>
        <text x="245" y="420" transform="rotate(-45,245,420)" text-anchor="end">murder</text>
        
        <!-- 1665 -->
        <text x="365" y="420" transform="rotate(-45,365,420)" text-anchor="end">x</text>
        <text x="405" y="420" transform="rotate(-45,405,420)" text-anchor="end">plag</text>
        <text x="445" y="420" transform="rotate(-45,445,420)" text-anchor="end">stillborn</text>
        <text x="485" y="420" transform="rotate(-45,485,420)" text-anchor="end">sudden death</text>
        <text x="525" y="420" transform="rotate(-45,525,420)" text-anchor="end">hanging</text>
        <text x="565" y="420" transform="rotate(-45,565,420)" text-anchor="end">mid borne</text>
        <text x="605" y="420" transform="rotate(-45,605,420)" text-anchor="end">surfeit</text>
        <text x="645" y="420" transform="rotate(-45,645,420)" text-anchor="end">dropsie</text>
        <text x="685" y="420" transform="rotate(-45,685,420)" text-anchor="end">consumption</text>
        
        <!-- 1666 -->
        <text x="800" y="420" transform="rotate(-45,800,420)" text-anchor="end">plag</text>
        <text x="840" y="420" transform="rotate(-45,840,420)" text-anchor="end">x</text>
        <text x="880" y="420" transform="rotate(-45,880,420)" text-anchor="end">stillborn</text>
        <text x="920" y="420" transform="rotate(-45,920,420)" text-anchor="end">consumption</text>
        <text x="960" y="420" transform="rotate(-45,960,420)" text-anchor="end">wormes</text>
        <text x="1000" y="420" transform="rotate(-45,1000,420)" text-anchor="end">small pox</text>
        <text x="1040" y="420" transform="rotate(-45,1040,420)" text-anchor="end">dropsy</text>
    </g>
    
    <!-- Year Labels -->
    <g font-family="sans-serif" font-size="14" fill="black">
        <text x="200" y="460" text-anchor="end">1664</text>
        <text x="500" y="460" text-anchor="end">1665</text>
        <text x="870" y="460" text-anchor="end">1666</text>
    </g>
</svg>
